<svg width="98" height="101" viewBox="0 0 98 101" fill="none" xmlns="http://www.w3.org/2000/svg">
<path d="M49.0001 7.04631C49.0001 3.15474 45.8272 -0.0551603 41.9812 0.538632C38.3556 1.0984 34.8015 2.09118 31.3966 3.50154C25.8156 5.81326 20.7446 9.20159 16.4731 13.4731C12.2017 17.7446 8.81332 22.8156 6.5016 28.3966C4.18989 33.9775 3.00006 39.9592 3.00006 46C3.00006 52.0408 4.18989 58.0225 6.5016 63.6034C8.81332 69.1844 12.2017 74.2554 16.4732 78.5269C20.7446 82.7984 25.8156 86.1867 31.3966 88.4985C34.8015 89.9088 38.3556 90.9016 41.9812 91.4614C45.8272 92.0552 49.0001 88.8453 49.0001 84.9537C49.0001 81.0621 45.8079 77.9849 42.0108 77.1325C40.2305 76.7328 38.4834 76.1802 36.7896 75.4786C32.9185 73.8751 29.401 71.5248 26.4381 68.5619C23.4753 65.5991 21.125 62.0816 19.5215 58.2104C17.918 54.3392 17.0927 50.1901 17.0927 46C17.0927 41.8099 17.918 37.6608 19.5215 33.7896C21.125 29.9184 23.4753 26.4009 26.4381 23.4381C29.401 20.4752 32.9185 18.1249 36.7896 16.5214C38.4834 15.8198 40.2305 15.2672 42.0108 14.8675C45.8079 14.0151 49.0001 10.9379 49.0001 7.04631Z" fill="url(#paint0_linear)"/>
<g filter="url(#filter0_d)">
<circle cx="55.0001" cy="46" r="40" fill="white"/>
</g>
<path d="M47.0001 51.2001C47.0001 56.0376 50.9126 59.9501 55.7501 59.9501C60.5876 59.9501 64.5001 56.0376 64.5001 51.2001V46.2001H47.0001V51.2001ZM60.9001 36.6626L63.5251 34.0376L62.5001 33.0001L59.6251 35.8876C58.4501 35.3001 57.1501 34.9501 55.7501 34.9501C54.3501 34.9501 53.0501 35.3001 51.8876 35.8876L49.0001 33.0001L47.9751 34.0376L50.6001 36.6626C48.4251 38.2501 47.0001 40.8001 47.0001 43.7001V44.9501H64.5001V43.7001C64.5001 40.8001 63.0751 38.2501 60.9001 36.6626ZM52.0001 42.4501C51.3126 42.4501 50.7501 41.8876 50.7501 41.2001C50.7501 40.5126 51.3126 39.9501 52.0001 39.9501C52.6876 39.9501 53.2501 40.5126 53.2501 41.2001C53.2501 41.8876 52.6876 42.4501 52.0001 42.4501ZM59.5001 42.4501C58.8126 42.4501 58.2501 41.8876 58.2501 41.2001C58.2501 40.5126 58.8126 39.9501 59.5001 39.9501C60.1876 39.9501 60.7501 40.5126 60.7501 41.2001C60.7501 41.8876 60.1876 42.4501 59.5001 42.4501Z" fill="#5AB2F1"/>
<defs>
<filter id="filter0_d" x="6.10352e-05" y="3" width="98" height="98" filterUnits="userSpaceOnUse" color-interpolation-filters="sRGB">
<feFlood flood-opacity="0" result="BackgroundImageFix"/>
<feColorMatrix in="SourceAlpha" type="matrix" values="0 0 0 0 0 0 0 0 0 0 0 0 0 0 0 0 0 0 127 0" result="hardAlpha"/>
<feOffset dx="-6" dy="6"/>
<feGaussianBlur stdDeviation="4.5"/>
<feColorMatrix type="matrix" values="0 0 0 0 0.333333 0 0 0 0 0.690196 0 0 0 0 0.941176 0 0 0 0.5 0"/>
<feBlend mode="normal" in2="BackgroundImageFix" result="effect1_dropShadow"/>
<feBlend mode="normal" in="SourceGraphic" in2="effect1_dropShadow" result="shape"/>
</filter>
<linearGradient id="paint0_linear" x1="43.1455" y1="1.22985e-06" x2="88.7273" y2="74.8545" gradientUnits="userSpaceOnUse">
<stop stop-color="#54AFF0"/>
<stop offset="1" stop-color="#54AFF0" stop-opacity="0"/>
</linearGradient>
</defs>
</svg>
